<svg xmlns="http://www.w3.org/2000/svg" version="1.1" id="rb-logo" x="0" y="0" viewBox="0 0 400 411.3" xml:space="preserve" enable-background="new 0 0 400 411.3">
	<style type="text/css">[class^="rb-"]{fill:rgba(37,37,37,1);stroke:rgba(0,0,0,.05);stroke-width:0;stroke-linejoin:round;}</style>
	<path class="rb-head" d="M207.5 111.3c23.7 13 53.5 4.2 66.5-19.5 13-23.7 4.2-53.5-19.5-66.5 -23.7-13-53.5-4.2-66.5 19.5C175 68.6 183.8 98.4 207.5 111.3z"/>
	<path class="rb-body" d="M109.2 326.1l27.1-48.6 83.6 11.4c12.1 1.7 22.1-3.8 27.8-13.9l35.2-64.6 33.3 18.2L295 267.4c-6.2 10.8-1.6 27.2 9.2 32.8 11.2 5.8 27.4 4.5 34.7-8.9l32.3-59.1c0.1-0.1 0.1-0.2 0.1-0.3 0.1-0.1 0.1-0.2 0.2-0.3 6.3-11.5 3.7-25-5.7-30.2l-122.8-67c-11.6-6.3-25.4-3.4-30.8 6.6l-49.4 91 -40.5-5.5c-11.5-1.6-22.2 4.4-26.7 13.9l-33.5 59.4c-5.5 9.9 0.7 24.4 13.2 30.9C95.9 341.5 106.1 330.8 109.2 326.1z"/>
	<path class="rb-hand" d="M121.8 177.5l25.8 27.4 24.5-44.3 -14.8-14.7c-7.4-8.3-21.4-8-31.2 0.8C116.3 155.4 114.4 169.2 121.8 177.5z"/>
	<path class="rb-leg" d="M164.6 311.5l-35.4 65.2c-5.4 11.8 5.4 26.2 13.9 31 12.4 7 29.8 2.7 34.1-4.8l43.8-83.7L164.6 311.5z"/>
	<path class="rb-rock-1" d="M30.4 104.7l-12.2-5.6L0 104l19.8 72.8 18.2-4.9 7.7-11 135.4-36.8c-15.6-13.8-24.8-28.7-26.2-53.3L30.4 104.7z"/>
	<path class="rb-rock-2" d="M379 0l-11.8 2.8 -7.7 11 -63.8 17.4c5.4 9.4 8.9 20.1 9.8 31.6 0.7 9.3-0.3 18.4-2.8 26.9L374.8 70l12.2 5.6L400 71 379 0z"/>
</svg>
